<svg width="24" height="23" viewBox="0 0 24 23" fill="none" xmlns="http://www.w3.org/2000/svg">
<g clip-path="url(#clip0_853_14395)">
<path d="M12.2325 22.5737C18.5766 22.566 23.7134 17.6001 23.706 11.4821C23.6985 5.36415 18.5495 0.410832 12.2054 0.418583C5.86135 0.426334 0.724504 5.39222 0.731979 11.5102C0.739453 17.6282 5.88842 22.5815 12.2325 22.5737Z" fill="#F494A8"/>
<path d="M9.15289 12.44C9.86053 12.4391 10.4321 10.7783 10.4296 8.73034C10.4271 6.68243 9.85146 5.02296 9.14383 5.02383C8.4362 5.02469 7.86458 6.68556 7.86708 8.73347C7.86958 10.7814 8.44526 12.4409 9.15289 12.44Z" fill="#0000FF"/>
<path d="M15.0117 12.4322C15.7193 12.4313 16.2909 10.7704 16.2884 8.72253C16.2859 6.67461 15.7102 5.01515 15.0026 5.01601C14.295 5.01688 13.7233 6.67774 13.7258 8.72566C13.7283 10.7736 14.304 12.433 15.0117 12.4322Z" fill="#0000FF"/>
<path d="M19.3775 11.9707C19.3775 13.5893 18.6096 15.1527 17.2371 16.2876C15.7703 17.4661 13.9403 18.0996 12.0589 18.0801C10.1794 18.1048 8.34972 17.4757 6.88284 16.3003C5.5061 15.1569 4.73393 13.6062 4.73181 11.9877" stroke="#0000FF" stroke-width="1.59173" stroke-linecap="round"/>
</g>
<defs>
<clipPath id="clip0_853_14395">
<rect width="22.974" height="22.1573" fill="white" transform="translate(0.732117 0.420898)"/>
</clipPath>
</defs>
</svg>
